<?xml version="1.0" encoding="UTF-8" standalone="no"?>
<svg
   width="84px"
   height="22px"
   viewBox="0 0 84 22"
   version="1.1"
   id="svg17"
   sodipodi:docname="deepin-logo.svg"
   inkscape:version="1.2.2 (b0a8486541, 2022-12-01)"
   xmlns:inkscape="http://www.inkscape.org/namespaces/inkscape"
   xmlns:sodipodi="http://sodipodi.sourceforge.net/DTD/sodipodi-0.dtd"
   xmlns="http://www.w3.org/2000/svg"
   xmlns:svg="http://www.w3.org/2000/svg">
  <sodipodi:namedview
     id="namedview19"
     pagecolor="#505050"
     bordercolor="#eeeeee"
     borderopacity="1"
     inkscape:showpageshadow="0"
     inkscape:pageopacity="0"
     inkscape:pagecheckerboard="0"
     inkscape:deskcolor="#505050"
     showgrid="false"
     inkscape:zoom="3.9196429"
     inkscape:cx="100.3918"
     inkscape:cy="5.6127563"
     inkscape:window-width="1600"
     inkscape:window-height="808"
     inkscape:window-x="0"
     inkscape:window-y="0"
     inkscape:window-maximized="1"
     inkscape:current-layer="svg17" />
  <!-- Generator: Sketch 47 (45396) - http://www.bohemiancoding.com/sketch -->
  <title
     id="title2">logo</title>
  <desc
     id="desc4">Created with Sketch.</desc>
  <defs
     id="defs7">
    <path
       d="M33,17.5 C33,18.0522847 32.5522847,18.5 32,18.5 L20,18.5 C18.3431458,18.5 17,17.1568542 17,15.5 L17,8.5 C17,6.84314575 18.3431458,5.5 20,5.5 L30,5.5 C31.6568542,5.5 33,6.84314575 33,8.5 L33,11.5 C33,12.6045695 32.1045695,13.5 31,13.5 L20,13.5 L20,14.5 C20,15.0522847 20.4477153,15.5 21,15.5 L32,15.5 C32.5522847,15.5 33,15.9477153 33,16.5 L33,17.5 Z M20,10.5 L30,10.5 L30,9.5 C30,8.94771525 29.5522847,8.5 29,8.5 L21,8.5 C20.4477153,8.5 20,8.94771525 20,9.5 L20,10.5 Z M50,17.5 C50,18.0522847 49.5522847,18.5 49,18.5 L37,18.5 C35.3431458,18.5 34,17.1568542 34,15.5 L34,8.5 C34,6.84314575 35.3431458,5.5 37,5.5 L47,5.5 C48.6568542,5.5 50,6.84314575 50,8.5 L50,11.5 C50,12.6045695 49.1045695,13.5 48,13.5 L37,13.5 L37,14.5 C37,15.0522847 37.4477153,15.5 38,15.5 L49,15.5 C49.5522847,15.5 50,15.9477153 50,16.5 L50,17.5 Z M37,10.5 L47,10.5 L47,9.5 C47,8.94771525 46.5522847,8.5 46,8.5 L38,8.5 C37.4477153,8.5 37,8.94771525 37,9.5 L37,10.5 Z M13,1.5 C13,0.94771525 13.4477153,0.5 14,0.5 L15,0.5 C15.5522847,0.5 16,0.94771525 16,1.5 L16,15.4954909 L15.9999991,15.4977945 C15.9987269,17.154649 14.6545496,18.4967637 12.997695,18.4954916 C10.9745434,18.4939366 8.97531169,18.4954399 7,18.5 C1.8507234,18.4990282 0.949838892,14 0.98925278,11.6230863 C1.02866667,9.2461725 1.82860104,5.87172012 7,5.5 L13,5.5 L13,1.5 L13,1.5 Z M8,15.5 C9.28806802,15.5025835 11.9548972,15.4974343 13,15.5 C12.9999856,14.6980339 12.9999856,8.50472002 13,8.5 C12.9999856,8.50472002 9.0195314,8.5 8,8.5 C6.23196093,8.5 3.94002055,9.36853572 3.9415228,12.0003738 C3.94252556,14.6862866 6.01051842,15.4944307 8,15.5 Z M67,2.5 L67,1.5 C67,0.94771525 67.4477153,0.5 68,0.5 L69,0.5 C69.5522847,0.5 70,0.94771525 70,1.5 L70,2.5 C70,3.05228475 69.5522847,3.5 69,3.5 L68,3.5 C67.4477153,3.5 67,3.05228475 67,2.5 Z M67,17.5 L67,6.5 C67,5.94771525 67.4477153,5.5 68,5.5 L69,5.5 C69.5522847,5.5 70,5.94771525 70,6.5 L70,17.5 C70,18.0522847 69.5522847,18.5 69,18.5 L68,18.5 C67.4477153,18.5 67,18.0522847 67,17.5 Z M71,5.5 C71,5.50104434 73.6667062,5.50126942 79.0001185,5.50067544 L79.0006754,5.50067541 C81.7617261,5.50067541 84,7.73894927 84,10.5 L84,17.5 C84,18.0522847 83.5522847,18.5 83,18.5 L82,18.5 C81.4477153,18.5 81,18.0522847 81,17.5 L81,10.5 C81,9.3954305 80.1045695,8.5 79,8.5 L74,8.5 L74,17.5 C74.014,17.9746328 74.034,18.5771509 73,18.5 C72.856,18.480728 72.0875,18.483226 72,18.5 C71.145,18.543178 71,18.2089454 71,17.5 L71,5.5 Z M54,21.5 C54,22.0522847 53.5522847,22.5 53,22.5 L52,22.5 C51.4477153,22.5 51,22.0522847 51,21.5 L51,7.5 C51,6.3954305 51.8954305,5.5 53,5.5 L60,5.5 C63.3137085,5.5 66,8.1862915 66,11.5 L66,12.5 C66,15.8137085 63.3137085,18.5 60,18.5 L54,18.5 L54,21.5 L54,21.5 Z M63,11.5 C63,9.84314575 61.6568542,8.5 60,8.5 L54,8.5 L54,15.5 L60,15.5 C61.6568542,15.5 63,14.1568542 63,12.5 L63,11.5 L63,11.5 Z"
       id="path-1" />
  </defs>
  <ellipse
     id="path131"
     cx="11.000002"
     cy="11"
     style="fill:#002424;fill-opacity:1;stroke:#002424;stroke-width:1.95731;stroke-dasharray:none;stroke-opacity:0.919447"
     rx="10.021345"
     ry="10.021343" />
  <path
     style="fill:#ffffff;fill-opacity:1;stroke-width:0.0291343"
     d="M 11.361986,19.288395 C 10.817427,19.261431 10.527139,19.207832 10.048242,19.045876 8.9162942,18.662939 8.0080038,18.081202 7.0650947,17.135229 5.7580957,15.823992 4.8708573,14.129249 4.5779091,12.38437 4.4879708,11.848677 4.4685086,11.440734 4.4750818,10.229034 4.4786842,9.5640444 4.4722763,8.9609646 4.4608381,8.888855 4.4428107,8.7752096 4.4632943,8.6872659 4.6146382,8.2284192 4.7835143,7.716438 4.952321,7.2803718 5.1399914,6.8713051 c 0.068507,-0.149329 0.1045662,-0.196656 0.14984,-0.196656 0.084504,0 0.20989,-0.1489295 0.2891739,-0.3434699 C 5.7366515,5.9443558 5.9106625,5.5970204 5.9545531,5.5815573 5.9804796,5.5723875 6.0376707,5.4888551 6.0816399,5.3958428 6.1825403,5.1824137 6.3952271,4.9503895 6.9937592,4.4007936 7.3930884,4.0341121 7.4703319,3.9745358 7.4781906,4.0271573 c 0.00873,0.058676 0.017597,0.055652 0.140454,-0.048065 C 7.9692898,3.683111 8.5698933,3.3575517 9.4939541,2.9625814 9.8903195,2.7931597 10.023798,2.7477757 10.053416,2.7723551 c 0.02881,0.023907 0.121177,0.016538 0.356147,-0.028415 0.424434,-0.081207 0.458743,-0.077539 0.272749,0.029114 -0.08562,0.049091 -0.151169,0.093543 -0.145669,0.098761 0.0055,0.00524 0.07814,-0.00142 0.161427,-0.014715 0.08466,-0.013525 0.232385,-0.012499 0.335044,0.0024 0.100988,0.014595 0.203281,0.02764 0.227318,0.028983 0.02548,0.00142 0.01638,0.013416 -0.02186,0.028787 -0.03606,0.014475 -0.06555,0.039878 -0.06555,0.056416 0,0.044168 0.259461,0.036767 0.57066,-0.016287 0.214629,-0.036581 0.30322,-0.039648 0.420208,-0.014562 0.202105,0.043349 0.207349,0.042159 0.186181,-0.042181 l -0.01856,-0.073981 0.112699,0.044343 c 0.06198,0.024387 0.289689,0.098259 0.506012,0.1641567 0.216322,0.065902 0.556174,0.1974115 0.755226,0.2922468 l 0.361911,0.1724303 0.172144,-0.044102 c 0.206506,-0.052901 0.285152,-0.054811 0.432995,-0.01048 0.07065,0.021167 0.118948,0.056165 0.130646,0.094689 0.02721,0.08958 0.09338,0.156357 0.282492,0.2851402 0.198595,0.1352381 0.264474,0.1338932 0.149248,-0.00306 l -0.08185,-0.097276 0.08581,0.044463 c 0.150332,0.077889 0.552072,0.3778173 0.822757,0.6142473 0.258966,0.2261904 0.600698,0.597531 0.826568,0.8981856 0.250348,0.333227 0.581656,0.9552731 0.679891,1.2765204 l 0.02227,0.072834 -0.0626,-0.072834 -0.06261,-0.072834 0.01434,0.2913429 c 0.01081,0.2196592 0.036,0.3554114 0.102417,0.5517334 0.117592,0.3476181 0.109935,0.3898756 -0.01092,0.060084 -0.181874,-0.4964275 -0.419663,-0.9512602 -0.449272,-0.8593505 -0.02154,0.066852 -0.06419,0.083532 -0.169811,0.066383 -0.07529,-0.012226 -0.101108,-0.00415 -0.116747,0.036625 -0.02836,0.073904 0.03705,0.3607145 0.09751,0.4275055 0.04673,0.051635 0.05332,0.052213 0.08602,0.00753 0.03121,-0.042672 0.04258,-0.034387 0.09571,0.069745 0.03315,0.064996 0.06029,0.1531334 0.06029,0.1958537 0,0.042727 0.02752,0.1948985 0.06115,0.338171 0.03364,0.1432748 0.05606,0.2656086 0.04981,0.2718506 -0.0062,0.00622 -0.04341,-0.040533 -0.08261,-0.1039353 -0.105354,-0.1704719 -0.152604,-0.1520581 -0.09664,0.037673 0.06298,0.2135033 0.120419,0.345532 0.178038,0.4092009 0.0463,0.051154 0.04623,0.056143 -0.0012,0.082637 -0.05943,0.033251 -0.06634,0.1810674 -0.01884,0.4026107 0.03069,0.1430881 0.04656,0.1590359 0.148245,0.1490179 0.04111,-0.00404 0.03092,0.046471 -0.06542,0.3244054 -0.06276,0.181062 -0.115445,0.3882 -0.117072,0.4603073 l -0.0029,0.131104 -0.04482,-0.1092537 c -0.05954,-0.1451011 -0.09519,-0.138084 -0.09519,0.018743 0,0.086884 -0.01403,0.1333735 -0.0437,0.1447561 -0.02807,0.010807 -0.04385,0.056198 -0.04414,0.1269397 -8.09e-4,0.198451 -0.08089,0.457376 -0.261729,0.845929 -0.09787,0.210268 -0.185828,0.430945 -0.195474,0.490392 l -0.01753,0.108084 -0.07813,-0.09573 -0.07813,-0.09574 -0.10673,0.170626 c -0.08811,0.140853 -0.107079,0.198746 -0.108772,0.331777 -0.0012,0.08863 -0.01446,0.18737 -0.02967,0.219419 -0.02116,0.04463 -0.02449,0.03251 -0.01422,-0.05175 l 0.01339,-0.110022 -0.07841,0.05684 c -0.04313,0.03126 -0.16363,0.144243 -0.267785,0.25107 -0.55801,0.572326 -1.230276,0.957955 -2.010267,1.153147 -0.247337,0.0619 -0.34026,0.06917 -0.874016,0.06832 -0.50064,-7.93e-4 -0.642026,-0.01097 -0.874031,-0.06293 -0.488362,-0.109373 -0.701734,-0.190659 -0.83085,-0.316522 -0.06439,-0.06276 -0.245131,-0.217669 -0.401659,-0.344245 C 10.106457,12.086721 9.7216859,11.547476 9.5477819,10.901295 9.479849,10.648882 9.4726441,10.570078 9.4716398,10.068933 L 9.470439,9.5153812 9.5601065,9.3405754 C 9.609416,9.2444345 9.6729878,9.0936613 9.7013639,9.0055297 9.7854858,8.7442681 9.9152286,8.5043471 10.047976,8.3645754 10.116454,8.2924724 10.2144,8.1661913 10.265624,8.083959 c 0.176499,-0.2833401 0.549934,-0.5808366 0.919432,-0.732458 0.288708,-0.1184715 0.450547,-0.1535264 0.789,-0.1709009 0.612491,-0.031439 1.098038,0.1429603 1.621525,0.5824248 0.202882,0.1703159 0.260173,0.2642418 0.07746,0.1269897 C 13.533003,7.784813 13.257254,7.6525606 13.022893,7.5781892 12.73976,7.4883361 12.204689,7.4656824 11.892242,7.5303098 10.925915,7.730184 10.204164,8.4192557 9.9622467,9.3729175 c -0.049157,0.1937818 -0.071295,0.361291 -0.071295,0.5395135 0,0.232164 0.027651,0.322316 0.068107,0.222057 0.00808,-0.02003 0.015731,0.02345 0.016997,0.09662 0.00862,0.49839 0.2556903,1.125522 0.6255443,1.587782 0.607923,0.75981 1.576927,1.200188 2.406725,1.09377 0.139688,-0.01791 0.331213,-0.05956 0.425615,-0.09255 0.09441,-0.03299 0.219278,-0.06375 0.277508,-0.06836 0.162653,-0.01286 0.458116,-0.167996 0.649624,-0.34108 0.113077,-0.102199 0.154715,-0.128576 0.120468,-0.07631 -0.05091,0.0777 -0.05078,0.07988 0.0047,0.07988 0.03137,0 0.147603,-0.06469 0.258277,-0.143754 0.258763,-0.184861 0.859914,-0.713549 0.90636,-0.797109 0.01966,-0.03535 0.03619,-0.124588 0.03676,-0.19831 0.0015,-0.213236 0.04517,-0.299066 0.186494,-0.367725 0.117657,-0.05716 0.131479,-0.07723 0.22933,-0.333083 0.105365,-0.275505 0.168749,-0.54417 0.166863,-0.7073362 l -9.71e-4,-0.08934 -0.04427,0.072834 -0.04427,0.072834 0.01943,-0.087408 C 16.234727,9.6808359 16.249879,8.2443103 16.21773,8.1781011 16.201388,8.1444567 16.173148,8.005483 16.154972,7.869281 16.090194,7.383795 15.807702,6.6841529 15.484018,6.2075049 15.16239,5.7338872 14.711659,5.254009 14.294051,4.9405888 13.724395,4.513057 13.010454,4.273185 12.08697,4.1990494 c -0.361648,-0.029027 -0.971849,-0.00349 -1.101125,0.046155 -0.02572,0.00982 -0.06298,0.0048 -0.08281,-0.011135 -0.0462,-0.037258 -0.34954,0.00284 -0.604166,0.079843 -0.104154,0.031505 -0.3139217,0.128114 -0.466149,0.21469 -0.1522273,0.086578 -0.3652732,0.1864208 -0.4734331,0.2218719 -0.1200643,0.039354 -0.1966561,0.080552 -0.1966561,0.1057801 0,0.022728 0.00328,0.041166 0.00731,0.04098 0.00404,-1.976e-4 0.079395,-0.019693 0.1675201,-0.04336 0.2042485,-0.054822 0.2074623,-0.054309 0.098215,0.015676 -0.057519,0.036865 -0.1852888,0.06992 -0.3463224,0.089613 -0.3091563,0.037815 -0.4350914,0.080028 -0.6340612,0.2125034 -0.203029,0.1351846 -0.4304934,0.3668561 -0.3601938,0.3668561 0.028426,0 0.079995,-0.015152 0.114605,-0.033677 0.061197,-0.032749 0.061645,-0.031756 0.016407,0.036417 -0.033186,0.050008 -0.084526,0.075574 -0.1792127,0.08922 -0.185006,0.026658 -0.4863265,0.1924609 -0.7780995,0.4281344 -0.4354364,0.3517107 -1.183543,1.1654698 -1.3364701,1.4537528 -0.031767,0.059888 -0.028394,0.065553 0.039092,0.065553 0.04062,0 0.07386,0.0095 0.07386,0.021156 0,0.011626 -0.1321323,0.2847777 -0.2936309,0.6069791 L 5.4580197,8.791879 5.3702604,9.605196 c -0.058515,0.542285 -0.089198,0.983224 -0.092072,1.32317 -0.00474,0.558275 0.026834,0.775088 0.1437264,0.987535 0.06366,0.115695 0.068652,0.149887 0.051654,0.353696 -0.01781,0.213597 -0.014105,0.234325 0.069708,0.389058 0.063741,0.117686 0.077071,0.163441 0.047623,0.163441 -0.022495,0 -0.0409,0.01106 -0.0409,0.02457 0,0.05042 0.1114833,0.346135 0.1857466,0.492688 0.08565,0.169033 0.1552828,0.224517 0.317443,0.252963 0.060433,0.01059 0.1540951,0.0581 0.208139,0.105551 0.090726,0.07966 0.3027266,0.445025 0.3517675,0.606247 l 0.020992,0.069 -0.094078,-0.05444 c -0.051744,-0.02994 -0.1087167,-0.07739 -0.1266065,-0.10542 -0.017892,-0.02804 -0.042738,-0.05098 -0.055215,-0.05098 -0.065793,0 0.1313147,0.430503 0.3161003,0.690412 0.089351,0.12567 0.09375,0.14151 0.052137,0.187489 -0.061285,0.06768 -0.032957,0.142198 0.1075049,0.282648 0.066383,0.06637 0.1012498,0.120922 0.081524,0.127504 -0.083456,0.02784 0.043447,0.255259 0.4497893,0.806123 0.1724325,0.233754 0.2274764,0.290945 0.2424624,0.251886 0.014366,-0.03744 0.043578,0.0011 0.1128518,0.149162 0.051405,0.109841 0.1543309,0.281643 0.2287296,0.381791 0.1288825,0.173494 0.1411198,0.182096 0.2591514,0.182282 0.1072539,1.75e-4 0.1326149,0.01299 0.1889546,0.09574 0.09685,0.142274 0.2356948,0.267169 0.4197423,0.377577 l 0.1643391,0.09858 -0.05444,0.07085 c -0.029944,0.03897 -0.054724,0.07827 -0.055084,0.08733 -3.962e-4,0.0087 0.07242,0.04683 0.1617104,0.08384 0.089296,0.03701 0.199812,0.09879 0.2455944,0.137339 0.081513,0.06855 0.5003825,0.276775 0.5191347,0.258031 0.00524,-0.0055 -0.012204,-0.05327 -0.038731,-0.106871 -0.035184,-0.07107 0.021418,-0.02511 0.2090756,0.169663 0.4372518,0.453795 0.6476648,0.551072 1.5283088,0.706587 0.186279,0.03286 0.369823,0.07227 0.407878,0.08755 0.08276,0.03308 0.108913,0.03308 -0.543048,5.34e-4 z M 12.39667,13.765564 C 11.525668,13.602429 10.779,13.233464 10.208352,12.684205 10.070366,12.551388 9.9017086,12.360897 9.8335596,12.26089 c -0.1072866,-0.157438 -0.06921,-0.125158 0.2837974,0.240619 0.224235,0.232347 0.448611,0.446132 0.498611,0.475079 0.112618,0.0652 0.11779,0.03906 0.01015,-0.05148 -0.0444,-0.03737 -0.145257,-0.151229 -0.224129,-0.253043 l -0.143406,-0.185119 0.173145,0.161009 c 0.304803,0.283432 0.798002,0.601073 0.821915,0.529343 0.007,-0.02093 0.07062,0.01652 0.158022,0.09298 0.08049,0.07041 0.214755,0.161516 0.298374,0.20246 0.219397,0.107428 0.693997,0.195175 1.164493,0.215297 0.300885,0.01288 0.388208,0.02457 0.335823,0.04502 -0.07684,0.02999 -0.695269,0.0547 -0.813721,0.03252 z M 9.7136656,12.518827 c -0.2268148,-0.270887 -0.376098,-0.510079 -0.376098,-0.602616 0,-0.05844 0.010371,-0.08554 0.02633,-0.06876 0.044102,0.04636 0.4479532,0.743199 0.4362169,0.75268 -0.006,0.0048 -0.044932,-0.03171 -0.086447,-0.08129 z m 0.016527,-0.75296 -0.045893,-0.09469 0.059713,0.06878 c 0.032837,0.03782 0.059713,0.08043 0.059713,0.09469 0,0.05094 -0.028372,0.02439 -0.073533,-0.06878 z M 12.563493,11.54352 c -0.31259,-0.08151 -0.313064,-0.119979 -0.0014,-0.119979 0.145416,0 0.308642,-0.0076 0.362723,-0.01702 l 0.09833,-0.01702 -0.108826,0.104416 c -0.05986,0.05743 -0.118852,0.103662 -0.131105,0.102734 -0.01226,-9.7e-4 -0.111092,-0.02483 -0.219643,-0.05314 z m 1.278656,-0.59466 c -0.05103,-0.03732 -0.04877,-0.04195 0.03813,-0.07794 0.05082,-0.02105 0.111775,-0.07576 0.135467,-0.121569 0.02369,-0.04582 0.04956,-0.0833 0.05749,-0.0833 0.01749,0 -0.08341,0.198089 -0.137788,0.270494 -0.03372,0.04491 -0.04643,0.04659 -0.0933,0.0123 z M 13.70772,10.86614 c 0,-0.04431 0.197611,-0.374888 0.224104,-0.374888 0.0086,0 -0.0061,0.03332 -0.03284,0.07404 -0.02668,0.04072 -0.08063,0.134444 -0.119888,0.208279 -0.03925,0.07384 -0.07138,0.115494 -0.07138,0.09257 z m 0.637397,-1.3287686 c -0.04036,-0.1182161 -0.03766,-0.1754935 0.01104,-0.2347227 0.04737,-0.057606 0.07895,0.011724 0.07947,0.1744641 3.96e-4,0.1734957 -0.04215,0.201933 -0.09051,0.060259 z M 4.3399968,7.8014154 c -0.024332,-0.060346 0.030124,-0.2693998 0.077861,-0.2989025 0.033256,-0.020556 0.010141,0.1797137 -0.033918,0.2938056 -0.021239,0.054997 -0.023704,0.055281 -0.043944,0.00502 z M 4.7502579,6.4282912 c 0.023297,-0.055761 0.042361,-0.1345798 0.042361,-0.175155 0,-0.058698 0.014462,-0.073773 0.070802,-0.073773 0.063649,0 0.068371,0.00808 0.046735,0.080116 -0.040469,0.1347327 -0.059068,0.1655672 -0.1320024,0.2188557 l -0.070257,0.05134 z M 11.595478,2.7997866 c -0.05163,-0.022182 -0.04915,-0.025272 0.02185,-0.027095 0.04407,-0.0012 0.08012,0.011058 0.08012,0.027095 0,0.03419 -0.02239,0.03419 -0.10197,0 z"
     id="path2377" />
  <path
     style="display:inline;fill:#fefefe;stroke-width:0.0168533"
     d="m 13.664644,19.773259 c -1.394808,-0.512799 -2.285698,-1.804779 -2.253778,-3.268442 0.01153,-0.5283 0.178081,-1.148495 0.434731,-1.618742 0.302444,-0.554164 0.786048,-1.02729 1.371144,-1.341436 1.258153,-0.67552 2.812993,-0.496562 3.884503,0.447091 0.466351,0.410704 0.778212,0.878964 0.971301,1.458397 0.163399,0.490344 0.212571,0.950329 0.158279,1.480616 -0.02217,0.216549 -0.175081,0.786855 -0.268236,1.000457 -0.300425,0.688859 -0.809658,1.25529 -1.454069,1.61742 -0.617822,0.347175 -1.310277,0.48815 -2.020976,0.41144 -0.198524,-0.0214 -0.654853,-0.125025 -0.822897,-0.186801 z m 0.585296,-0.282365 c 1.287334,0.228994 2.552294,-0.360471 3.18902,-1.486052 0.225113,-0.397947 0.334929,-0.763789 0.365008,-1.215991 0.02861,-0.43014 -0.05772,-0.952861 -0.220263,-1.333954 l -0.04323,-0.101304 -0.23858,-0.07554 c -0.52991,-0.167665 -1.049644,-0.222662 -1.453395,-0.15379 l -0.152181,0.02598 0.07063,0.02085 0.07063,0.02085 -0.05981,0.171431 c -0.07554,0.216538 -0.195371,0.47315 -0.301894,0.646514 -0.220625,0.359063 -0.563765,0.633 -0.804967,0.642617 -0.105878,0.0044 -0.248785,-0.05327 -0.286858,-0.11531 -0.04012,-0.0655 -0.06517,-0.191343 -0.06235,-0.313443 0.0034,-0.144741 0.0939,-0.440947 0.179905,-0.588483 0.138164,-0.237006 0.44431,-0.53723 0.720658,-0.706696 0.16288,-0.09989 1.000263,-0.527274 1.307515,-0.667337 l 0.131864,-0.06012 -0.125372,-0.08968 c -0.281468,-0.201314 -0.557852,-0.336921 -0.854613,-0.419319 -0.245115,-0.06805 -0.216008,-0.07671 -0.441605,0.131239 -0.328568,0.302862 -0.679962,0.801048 -0.921572,1.306533 -0.05233,0.109502 -0.09584,0.234855 -0.149476,0.430783 -0.06638,0.242465 -0.07587,0.296643 -0.07732,0.442006 -0.0039,0.39274 0.126703,0.729752 0.33899,0.874504 0.148079,0.100977 0.388921,0.09639 0.605613,-0.01168 0.12599,-0.06277 0.333384,-0.239626 0.440965,-0.376027 0.180041,-0.228273 0.361999,-0.644025 0.452451,-1.033796 l 0.05289,-0.227946 0.08159,0.03122 c 0.06011,0.02303 0.08512,0.04203 0.09496,0.07216 0.0075,0.02292 0.03061,0.04563 0.05256,0.05174 0.07649,0.02118 0.281757,0.453271 0.371559,0.78215 0.05031,0.184291 0.08201,0.456831 0.07709,0.662889 -0.0033,0.136947 -0.01513,0.197052 -0.09809,0.496894 -0.102309,0.369761 -0.153099,0.483532 -0.323917,0.72544 -0.339634,0.480988 -0.918692,0.872538 -1.574625,1.064776 -0.292835,0.0858 -0.924844,0.182446 -1.020393,0.155996 -0.01807,-0.0044 -0.0241,-5.46e-4 -0.01685,0.01212 0.01059,0.01867 0.22983,0.108946 0.375731,0.154686 0.0354,0.01113 0.146862,0.03482 0.247694,0.05283 z m -0.239574,-1.64887 c 0.586248,0.08297 1.132871,-5.9e-4 1.497106,-0.229201 0.311675,-0.195535 0.510376,-0.45408 0.629337,-0.818918 0.0806,-0.247169 0.103313,-0.44063 0.08823,-0.75141 -0.01147,-0.236427 -0.06218,-0.547163 -0.07379,-0.452256 -0.04252,0.347371 -0.189301,0.877877 -0.301508,1.089743 -0.238671,0.450651 -0.611314,0.728594 -1.009615,0.753047 -0.234435,0.01441 -0.58193,-0.07019 -0.78925,-0.192063 -0.364177,-0.214104 -0.731361,-0.731357 -0.864423,-1.217716 -0.129011,-0.471557 -0.177488,-1.095256 -0.139469,-1.794429 0.0028,-0.05305 -0.01167,-0.04482 -0.18482,0.104579 -0.273525,0.236001 -0.543054,0.580141 -0.720372,0.919762 -0.07121,0.13639 -0.09763,0.210316 -0.17628,0.493313 -0.07948,0.285956 -0.09398,0.358342 -0.102877,0.513617 -0.01201,0.209476 -0.0098,0.351083 0.0086,0.556989 l 0.01321,0.147284 0.08399,0.05229 c 0.339149,0.211058 0.827979,0.4598 1.151611,0.585993 0.226433,0.08831 0.675127,0.208941 0.890258,0.239398 z m 0.644041,-1.718168 c 0.156737,-0.07576 0.41352,-0.327417 0.552077,-0.540964 0.08406,-0.129545 0.17973,-0.319556 0.169768,-0.337142 -0.0034,-0.0055 -0.04984,0.0033 -0.103335,0.02041 -0.105562,0.03384 -0.168857,0.09694 -0.196172,0.195579 -0.02458,0.08886 -0.159272,0.282288 -0.257085,0.369281 -0.04946,0.04399 -0.140963,0.104142 -0.203317,0.133671 -0.06236,0.02947 -0.116021,0.06321 -0.119259,0.07489 -0.008,0.02871 0.03535,0.102614 0.0649,0.110812 0.01309,0.0033 0.05468,-0.0087 0.09243,-0.02664 z"
     id="path12817" />
  <text
     xml:space="preserve"
     style="font-style:normal;font-weight:normal;font-size:11.0508px;line-height:1.25;font-family:sans-serif;letter-spacing:0px;word-spacing:0px;fill:#002424;fill-opacity:1;stroke:none;stroke-width:0.276272"
     x="23.042097"
     y="14.780599"
     id="text6047"><tspan
       sodipodi:role="line"
       id="tspan6045"
       x="23.042097"
       y="14.780599"
       style="stroke-width:0.276272;fill:#002424;fill-opacity:1">DebianDDE</tspan></text>
</svg>
